<?xml version="1.0" encoding="UTF-8" standalone="no"?>
<svg
   width="329"
   height="25"
   viewBox="0 0 329 25"
   version="1.1"
   xml:space="preserve"
   style="clip-rule:evenodd;fill-rule:evenodd;stroke-linejoin:round;stroke-miterlimit:2"
   id="svg15"
   sodipodi:docname="footer.svg"
   inkscape:version="1.4.2 (ebf0e940, 2025-05-08)"
   xmlns:inkscape="http://www.inkscape.org/namespaces/inkscape"
   xmlns:sodipodi="http://sodipodi.sourceforge.net/DTD/sodipodi-0.dtd"
   xmlns="http://www.w3.org/2000/svg"
   xmlns:svg="http://www.w3.org/2000/svg"
   xmlns:serif="http://www.serif.com/"><defs
   id="defs15" /><sodipodi:namedview
   id="namedview15"
   pagecolor="#ffffff"
   bordercolor="#000000"
   borderopacity="0.25"
   inkscape:showpageshadow="2"
   inkscape:pageopacity="0.0"
   inkscape:pagecheckerboard="0"
   inkscape:deskcolor="#d1d1d1"
   inkscape:zoom="2.0194175"
   inkscape:cx="206"
   inkscape:cy="-27.235577"
   inkscape:window-width="2048"
   inkscape:window-height="1099"
   inkscape:window-x="0"
   inkscape:window-y="25"
   inkscape:window-maximized="1"
   inkscape:current-layer="svg15" />
    <g
   id="Artboard1"
   transform="translate(-0.125)">
        <rect
   x="0.125"
   y="0"
   width="411.38699"
   height="25"
   style="fill:none"
   id="rect1" />
        <clipPath
   id="_clip1">
            <rect
   x="0.125"
   y="0"
   width="411.38699"
   height="25"
   id="rect2" />
        </clipPath>
        <g
   clip-path="url(#_clip1)"
   id="g15">
            <g
   id="Logo"
   transform="translate(0.125)">
                <g
   id="Group-8"
   transform="translate(0.125)">
                    <g
   id="sri-copy">
                        <g
   id="Group"
   transform="translate(30.1453)">
                            <path
   id="Path"
   d="M 16.12,12.391 C 14.271,11.311 12.255,10.533 10.152,10.088 5.913,9.046 5.188,8.224 5.188,6.743 c 0,-1.864 1.841,-3.29 4.128,-3.29 2.565,0 4.127,1.262 4.406,3.508 l 0.056,0.604 h 4.296 V 6.853 C 18.074,2.686 14.727,0 9.539,0 4.63,0 0.893,2.96 0.893,6.853 0.889,8.641 1.709,10.334 3.123,11.458 4.462,12.5 5.8,12.883 8.701,13.542 l 0.446,0.109 c 1.314,0.222 2.579,0.667 3.737,1.316 0.996,0.532 1.601,1.572 1.562,2.686 0,1.974 -2.398,3.838 -4.964,3.838 C 8.256,21.568 7.044,21.197 6.079,20.449 5.078,19.783 4.474,18.676 4.462,17.489 V 16.776 H 0 l 0.056,0.768 C 0.279,21.984 4.072,25 9.482,25 c 5.355,0 9.259,-3.125 9.259,-7.401 -0.035,-2.034 -0.997,-3.946 -2.621,-5.208 z"
   style="fill:#0d0d1b;fill-rule:nonzero" />
                            <g
   id="Rectangle"
   transform="translate(45.6823,0.383333)">
                                <rect
   x="0"
   y="0"
   width="4.2950001"
   height="24.122999"
   style="fill:#0d0d1b"
   id="rect3" />
                            </g>
                            <g
   id="Path1"
   serif:id="Path"
   transform="translate(21.8656,0.383333)">
                                <path
   d="M 12.996,15.516 C 17.514,14.803 20.582,11.897 20.582,8.059 20.425,4.792 18.26,1.948 15.116,0.877 12.717,0 11.212,0 7.921,0 H 0 V 24.123 H 4.295 V 3.508 h 4.183 c 2.677,0 3.626,0.11 5.188,0.822 1.528,0.627 2.565,2.049 2.677,3.673 -0.135,1.646 -1.188,3.082 -2.733,3.728 -1.339,0.603 -2.566,0.713 -6.08,0.713 H 4.742 l 10.821,11.678 h 5.523 z"
   style="fill:#0d0d1b;fill-rule:nonzero"
   id="path3" />
                            </g>
                        </g>
                        <g
   id="Group1"
   serif:id="Group"
   transform="translate(0,2.34375)">
                            <path
   id="Path2"
   serif:id="Path"
   d="M 19.832,6.25 H 7.421 C 4.778,6.25 3.991,5.454 1.687,3.124 L 0,1.421 1.406,0 3.093,1.705 c 2.192,2.216 2.529,2.556 4.328,2.556 h 12.411 z"
   style="fill:#0d0d1b;fill-rule:nonzero" />
                        </g>
                        <g
   id="Group2"
   serif:id="Group"
   transform="translate(10.3128,12.5)">
                            <rect
   id="Rectangle1"
   serif:id="Rectangle"
   x="0"
   y="0"
   width="14.279"
   height="1.563"
   style="fill:#0d0d1b" />
                        </g>
                        <g
   id="Group3"
   serif:id="Group"
   transform="translate(3.96648,14.8438)">
                            <path
   id="Path3"
   serif:id="Path"
   d="M 19.253,8.594 17.606,6.93 C 15.465,4.768 15.136,4.436 13.325,4.436 H 5.599 C 3.018,4.436 2.25,3.66 0,1.386 L 1.373,0 c 2.141,2.163 2.469,2.494 4.281,2.494 h 7.726 c 2.58,0 3.349,0.777 5.599,3.05 l 1.647,1.663 z"
   style="fill:#0d0d1b;fill-rule:nonzero" />
                        </g>
                        <g
   id="Group4"
   serif:id="Group"
   transform="translate(126.134,0.78125)">
                            <path
   id="Path4"
   serif:id="Path"
   d="m 2.511,2.092 h 3.423 c 1.581,-0.135 3.164,0.232 4.509,1.045 0.977,0.775 1.56,1.919 1.598,3.138 -0.046,1.384 -0.82,2.65 -2.055,3.358 -0.97,0.55 -2.054,0.715 -4.337,0.715 H 5.021 v 2.202 h 0.571 c 2.739,0 3.652,0.109 4.851,0.55 1.784,0.645 2.966,2.29 2.967,4.128 -0.058,1.742 -1.112,3.311 -2.738,4.073 -1.49,0.553 -3.089,0.779 -4.68,0.661 H 5.021 v 2.201 h 1.256 c 3.538,0 4.907,-0.275 6.677,-1.43 1.865,-1.249 2.957,-3.315 2.91,-5.504 0.064,-2.635 -1.607,-5.02 -4.166,-5.945 C 13.433,10.242 14.49,8.411 14.495,6.44 14.495,2.478 11.299,0 6.277,0 H 0 v 24.219 h 2.511 z"
   style="fill:#0d0d1b;fill-rule:nonzero" />
                        </g>
                        <g
   id="Group5"
   serif:id="Group"
   transform="translate(85.676)">
                            <g
   id="Rectangle2"
   serif:id="Rectangle"
   transform="translate(3.81728,22.0223)">
                                <rect
   x="0"
   y="0"
   width="8.875"
   height="2.1960001"
   style="fill:#0d0d1b"
   id="rect4" />
                            </g>
                            <rect
   id="Rectangle3"
   serif:id="Rectangle"
   x="0"
   y="0"
   width="2.461"
   height="24.164"
   style="fill:#0d0d1b" />
                        </g>
                        <g
   id="Group6"
   serif:id="Group"
   transform="translate(99.9553)">
                            <path
   id="Path5"
   serif:id="Path"
   d="m 15.7,11.698 h 2.626 L 13.185,0 H 10.504 L 0,24.219 H 2.514 L 11.899,2.802 Z"
   style="fill:#0d0d1b;fill-rule:nonzero" />
                            <g
   id="Path6"
   serif:id="Path"
   transform="translate(8.77119,13.8388)">
                                <path
   d="M 0.95,0 0,2.196 h 8.771 l 3.575,8.183 h 2.682 L 10.504,0 Z"
   style="fill:#0d0d1b;fill-rule:nonzero"
   id="path4" />
                            </g>
                        </g>
                    </g>
                    <g
   id="eth-copy"
   transform="translate(178)">
                        <path
   id="path5"
   d="M 54.976,9.496 H 49.48 L 51.41,0 H 4.911 L 0,24.531 h 18.537 l 1.261,-6.33 H 8.844 L 9.47,15.035 H 20.431 L 21.544,9.496 H 10.608 l 0.625,-3.165 h 17.406 l -3.644,18.2 h 7.559 l 3.642,-18.2 h 6.345 l -3.641,18.2 h 7.616 l 1.885,-9.496 h 5.494 l -1.883,9.496 h 7.58 L 64.506,0 H 56.905 Z M 87.407,3.165 h 2.528 L 90.562,0 h -2.517 z m 6.485,0 h 2.53 L 97.047,0 H 94.53 Z m 23.65,0 h 2.529 L 120.699,0 h -2.518 z m 12.657,4.676 c -4.412,0 -7.508,3.117 -8.5,8.556 -0.156,0.851 -0.235,1.714 -0.237,2.579 0,3.715 2.246,6.024 5.868,6.024 2.095,0.005 4.101,-0.841 5.557,-2.344 l 0.022,-0.024 -1.402,-1.715 -0.026,-0.03 -0.027,0.028 c -0.969,1.212 -2.437,1.918 -3.991,1.92 -1.726,0 -3.571,-1.034 -3.571,-3.927 0.006,-0.839 0.095,-1.676 0.266,-2.497 0.26,-1.763 1.004,-3.42 2.151,-4.786 0.935,-1.029 2.262,-1.615 3.653,-1.616 1.347,-0.061 2.609,0.657 3.242,1.845 l 0.021,0.033 1.786,-1.513 0.025,-0.022 -0.019,-0.027 c -1.045,-1.628 -2.882,-2.576 -4.818,-2.484 z m 16.139,-0.356 c -1.795,-0.088 -3.54,0.602 -4.788,1.893 L 143.447,0 h -2.445 l -4.913,24.531 h 2.445 l 2.04,-10.305 c 0.873,-4.343 4.249,-4.563 4.916,-4.563 0.804,-0.082 1.603,0.198 2.181,0.763 0.577,0.566 0.872,1.358 0.805,2.163 -0.013,0.523 -0.07,1.044 -0.172,1.557 l -2.074,10.385 h 2.442 l 2.146,-10.611 c 0.11,-0.551 0.168,-1.111 0.171,-1.673 0.089,-1.267 -0.368,-2.512 -1.256,-3.421 -0.889,-0.91 -2.124,-1.397 -3.395,-1.341 z m -32.966,17.006 -0.008,0.041 h 2.411 l 3.29,-16.618 h -2.37 z M 69.15,10.243 69.143,10.288 h 8.184 l -10.79,12.238 -0.005,0.007 -0.405,1.999 h 11.621 l 0.458,-2.374 H 69.518 L 80.34,9.92 80.345,9.912 80.752,7.914 h -11.15 z m 40.207,-2.531 c -1.764,-0.047 -3.449,0.733 -4.555,2.106 l 0.374,-1.867 0.007,-0.037 h -2.379 l -3.288,16.577 -0.007,0.041 h 2.415 l 2.011,-10.168 c 0.514,-2.608 2.511,-4.502 4.752,-4.502 0.917,-0.022 1.785,0.413 2.315,1.161 l 0.023,0.03 1.958,-1.76 -0.019,-0.024 c -0.898,-1.046 -2.228,-1.62 -3.607,-1.557 z M 94.792,7.914 h 2.446 l -0.007,0.04 -3.285,16.578 h -2.38 l 0.008,-0.041 0.315,-1.725 c -1.232,1.328 -2.987,2.047 -4.798,1.966 -1.254,0.056 -2.472,-0.426 -3.348,-1.323 -0.875,-0.898 -1.325,-2.126 -1.235,-3.375 0.007,-0.506 0.065,-1.009 0.172,-1.503 L 82.708,18.38 84.787,7.914 H 87.2 l -0.008,0.04 -2.044,10.206 c -0.097,0.507 -0.152,1.02 -0.164,1.536 -0.062,0.798 0.234,1.582 0.809,2.14 0.576,0.558 1.37,0.831 2.167,0.746 0.654,0 3.956,-0.218 4.818,-4.505 z"
   style="fill:#00000f;fill-opacity:0.94;fill-rule:nonzero" />
                    </g>
                </g>
                <g
   transform="matrix(0.0760997,0,0,-0.0760997,365.16,1.68048)"
   id="g6">
                    <path
   d="M 0.102,20 V 0 h 609 v 20 z"
   style="fill-rule:nonzero"
   id="path6" />
                </g>
                <g
   transform="matrix(0.0760997,0,0,-0.0760997,365.16,13.6662)"
   id="g7">
                    <path
   d="m 346.199,99.699 c -9.301,-5 -9,-18.801 0.403,-22.801 9.898,-4.097 20.5,1.903 20.5,11.602 0,10 -11.602,16.199 -20.903,11.199 z"
   style="fill-rule:nonzero"
   id="path7" />
                </g>
                <g
   transform="matrix(0.0760997,0,0,-0.0760997,365.16,22.4557)"
   id="g8">
                    <path
   d="M 57.102,211 V 82 h 22 v 129 z"
   style="fill-rule:nonzero"
   id="path8" />
                </g>
                <g
   transform="matrix(0.0760997,0,0,-0.0760997,365.16,17.7453)"
   id="g9">
                    <path
   d="M 512.898,138.102 512.602,127 l -9.403,5.602 c -5.097,3 -9.699,5.5 -10.097,5.5 -0.5,0 -2.301,-2.5 -4.102,-5.602 -2.602,-4.597 -2.898,-5.796 -1.801,-6.5 0.801,-0.5 4.903,-2.699 9.102,-4.898 4.199,-2.199 7.898,-4.398 8.199,-4.801 0.199,-0.398 -3.801,-3.097 -9,-6 -5.199,-2.898 -9.398,-5.5 -9.398,-5.801 0,-0.296 1.597,-2.898 3.5,-5.898 l 3.398,-5.398 9.301,5.398 c 5.097,3 9.597,5.5 10.097,5.5 0.403,0 0.704,-5 0.704,-11 V 82 l 6.296,0.301 6.204,0.301 0.296,10.801 c 0.102,5.898 0.602,10.699 1,10.699 0.403,-0.102 4.801,-2.5 9.704,-5.5 10,-5.898 9.5,-6 13.796,1.699 l 2.704,4.699 -9.5,5.102 c -5.204,2.801 -9.5,5.398 -9.5,5.801 0,0.398 4.097,2.898 9,5.5 5,2.699 9,5.301 9,5.898 0,1.801 -5.403,10.801 -6.5,10.801 -0.5,-0.102 -5,-2.5 -10,-5.5 l -9,-5.301 -0.301,10.903 -0.301,10.898 h -12.801 z"
   style="fill-rule:nonzero"
   id="path9" />
                </g>
                <g
   transform="matrix(0.0760997,0,0,-0.0760997,365.16,25.1114)"
   id="g10">
                    <path
   d="m 138.102,209.296 c -10,-2.097 -20,-7.5 -25.801,-13.898 -8.5,-9.301 -12.102,-19 -12.199,-32.602 -0.102,-27.398 20.5,-46.898 49.5,-46.898 23.199,0 41.199,12.398 47.5,32.699 2.199,7.199 2.597,18.903 0.898,26.199 -2.801,12.301 -12.801,24.801 -24.102,30.102 -12,5.602 -23.597,7.102 -35.796,4.398 z m 24.5,-20.5 c 11.796,-5.898 17.296,-21.097 12.898,-36 -2.102,-7.097 -9.898,-15.097 -16.398,-16.898 -14.602,-4.102 -27.903,1.102 -34.204,13.398 -3,5.801 -3.597,17.602 -1.296,24.704 2.398,7 9.5,14.199 16.097,16.296 6.903,2.204 16.801,1.5 22.903,-1.5 z"
   style="fill-rule:nonzero"
   id="path10" />
                </g>
                <g
   transform="matrix(0.0760997,0,0,-0.0760997,365.16,27.7978)"
   id="g11">
                    <path
   d="m 253.102,245.5 c -14.903,-2.301 -27.801,-10.301 -34.301,-21.403 -4.102,-7 -6,-16 -5.5,-25.898 0.801,-14.398 6.801,-25.602 17.699,-33.199 8.199,-5.699 15.102,-8 26.199,-8.602 11.801,-0.597 21.199,1.903 28.301,7.301 2.602,1.898 4.801,3.5 5.102,3.5 1.199,0 0.398,-11.199 -1.204,-15.898 -3.5,-11 -12.5,-16.102 -28.199,-16.102 -10.199,0 -17,1.699 -26.898,6.602 -4.102,2 -7.5,3.398 -7.699,3.199 -1.102,-1.102 -8.5,-14.5 -8.5,-15.403 0,-1.796 13.199,-8.296 21.699,-10.597 11.597,-3.199 35.097,-3.102 44.301,0.097 15.5,5.301 24.199,15.102 27.597,31 1,5.102 1.403,16.704 1.403,51.403 v 44.801 L 302.898,246 292.602,245.699 292,233.097 l -3.5,3 c -8.398,7.5 -23.102,11.301 -35.398,9.403 z m 19.699,-19.801 c 11.699,-3.5 18.699,-12.898 18.597,-25 0,-7 -1.796,-11.699 -6.296,-16.898 -13.301,-15.102 -42.102,-10.403 -48.403,7.898 -7.597,22.301 12.301,41.102 36.102,34 z"
   style="fill-rule:nonzero"
   id="path11" />
                </g>
                <g
   transform="matrix(0.0760997,0,0,-0.0760997,365.16,25.127)"
   id="g12">
                    <path
   d="m 342.801,210.5 c -0.403,-0.398 -0.699,-21.597 -0.699,-47.097 v -46.301 h 22 l -0.204,46.801 -0.296,46.699 -10.102,0.301 c -5.5,0.097 -10.301,0 -10.699,-0.403 z"
   style="fill-rule:nonzero"
   id="path12" />
                </g>
                <g
   transform="matrix(0.0760997,0,0,-0.0760997,365.16,25.3172)"
   id="g13">
                    <path
   d="m 425.398,212.602 c -20,-3.602 -34.699,-17.199 -38.898,-35.898 -4.801,-21.403 5,-43.204 23.5,-52.5 16.5,-8.403 41.398,-7.102 54.398,2.796 4,3 10.704,10.903 10.704,12.5 0,0.5 -3.602,2.903 -8.102,5.5 l -8.102,4.704 -3.398,-3.903 c -4.898,-5.801 -11.301,-8.5 -20,-8.5 -17.301,0.102 -27.898,11 -27.801,28.801 0,9.301 2.102,14.898 7.5,20.398 5.403,5.5 11.102,7.602 20.403,7.602 9.097,0 13.597,-1.898 19.398,-7.898 1.898,-2 3.898,-3.602 4.301,-3.602 1.597,0 15.699,8.5 15.699,9.5 0,2 -6,8.898 -11,12.602 -8.801,6.699 -25.898,10.097 -38.602,7.898 z"
   style="fill-rule:nonzero"
   id="path13" />
                </g>
                <g
   transform="matrix(0.0760997,0,0,-0.0760997,365.16,47.7969)"
   id="g14">
                    <path
   d="M 0.301,313.301 0.602,303.5 304.898,303.199 609.102,303 v 20 H 0 Z"
   style="fill-rule:nonzero"
   id="path14" />
                </g>
            </g>
        </g>
    </g>
</svg>
